<svg xmlns="http://www.w3.org/2000/svg" viewBox="0 0 52.25 52.25"><defs><style>.cls-1{fill:none;stroke:#000;stroke-linecap:round;stroke-linejoin:round;stroke-width:0.25px;stroke-dasharray:0.8 1;}</style></defs><title>Chord chart line</title><g id="Layer_2" data-name="Layer 2"><g id="Layer_9" data-name="Layer 9"><path class="cls-1" d="M31.76,35A18.92,18.92,0,0,1,47.3,17.31a17.08,17.08,0,0,0-12.46,29A18.81,18.81,0,0,1,31.76,35Z"/><path class="cls-1" d="M26.13.13a26,26,0,1,0,26,26A26,26,0,0,0,26.13.13Zm0,48.75A22.75,22.75,0,1,1,48.88,26.13,22.75,22.75,0,0,1,26.13,48.88Z"/><path class="cls-1" d="M23.83,15.23c0-4,.2-7.9.58-11.63A22.46,22.46,0,0,0,12.7,7.81,51.63,51.63,0,0,1,17,29.14a54.89,54.89,0,0,1-2.44,16.51,22.47,22.47,0,0,0,11.35,3.06,22.75,22.75,0,0,0,3.34-.25C25.9,39.87,23.83,28.15,23.83,15.23Z"/><path class="cls-1" d="M31.82,16.54c2.67-3,5.41-5.76,8.17-8.29A22.46,22.46,0,0,0,28.45,3.6a51.63,51.63,0,0,1-11,18.78A54.89,54.89,0,0,1,4.65,33.07a22.47,22.47,0,0,0,6.43,9.84,22.75,22.75,0,0,0,2.66,2C17,36.31,23.22,26.19,31.82,16.54Z"/></g></g></svg>