<svg xmlns="http://www.w3.org/2000/svg" viewBox="0 0 52 52"><defs><style>.cls-1{fill:#fff;}</style></defs><title>Chord chart white</title><g id="Layer_2" data-name="Layer 2"><g id="Layer_9" data-name="Layer 9"><path class="cls-1" d="M31.63,34.9A18.92,18.92,0,0,1,47.18,17.19a17.08,17.08,0,0,0-12.46,29A18.81,18.81,0,0,1,31.63,34.9Z"/><path class="cls-1" d="M26,0A26,26,0,1,0,52,26,26,26,0,0,0,26,0Zm0,48.75A22.75,22.75,0,1,1,48.75,26,22.75,22.75,0,0,1,26,48.75Z"/><path class="cls-1" d="M31.22,16.9C33.76,14.06,36.36,11.42,39,9A21.34,21.34,0,0,0,28,4.6,49.05,49.05,0,0,1,17.58,22.44,52.14,52.14,0,0,1,5.4,32.6,21.35,21.35,0,0,0,11.52,42,21.61,21.61,0,0,0,14,43.89C17.1,35.68,23,26.06,31.22,16.9Z"/><path class="cls-1" d="M15.12,44.71A21.33,21.33,0,0,0,25.6,47.46a21.61,21.61,0,0,0,3.18-.24,79.43,79.43,0,0,1-4.6-20.55A68.81,68.81,0,0,0,15.12,44.71Z"/><path class="cls-1" d="M17.08,22a46.31,46.31,0,0,0,6.6-9.57c.08-2.68.24-5.29.5-7.82a21.34,21.34,0,0,0-11.12,4,45.79,45.79,0,0,1,3.69,13.75Z"/></g></g></svg>