<svg xmlns="http://www.w3.org/2000/svg" viewBox="0 0 54 59.71"><defs><style>.cls-1{fill:#bdbdbd;}.cls-2{fill:none;stroke:#000;stroke-linecap:round;stroke-linejoin:round;stroke-width:0.75px;}</style></defs><title>cleanser with gray bg box</title><g id="Layer_2" data-name="Layer 2"><g id="Layer_4" data-name="Layer 4"><rect class="cls-1" width="54" height="59.71"/><path class="cls-2" d="M30.09,33.52c-.37,0-1.75-.16-2-.51a2.3,2.3,0,0,1,0-1.52A6.55,6.55,0,0,0,28.57,29l.15-8.71c0-1.76-.17-3.2-1.71-3.2s-1.59,1.28-1.59,3V29a6.56,6.56,0,0,0,.44,2.53,2.3,2.3,0,0,1,0,1.52c-.21.35-1.59.51-2,.51H18.17c-.92,0-1.77,1.47-1.77,2.53v.25H37.59v-.25c0-1.06-.84-2.53-1.77-2.53Z"/><polygon class="cls-2" points="36.71 42.65 22.59 42.65 22.59 39.48 20.38 42.65 17.29 42.65 17.29 36.31 36.71 36.31 36.71 42.65"/><line class="cls-2" x1="34.06" y1="36.91" x2="34.06" y2="42.65"/><line class="cls-2" x1="31.41" y1="38.24" x2="31.41" y2="42.65"/><line class="cls-2" x1="28.77" y1="40" x2="28.77" y2="42.65"/></g></g></svg>