<svg xmlns="http://www.w3.org/2000/svg" viewBox="0 0 16.25 17.74"><defs><style>.cls-1{fill:none;stroke:#000;stroke-linecap:round;stroke-linejoin:round;stroke-width:0.25px;}</style></defs><title>cleanser only</title><g id="Layer_2" data-name="Layer 2"><g id="Layer_4" data-name="Layer 4"><path class="cls-1" d="M10.46,11.38c-.28,0-1.32-.11-1.48-.35a1.43,1.43,0,0,1,0-1,4.1,4.1,0,0,0,.33-1.73l.12-6C9.43,1.1,9.3.13,8.14.13S6.94,1,6.94,2.2V8.26A4.1,4.1,0,0,0,7.27,10a1.43,1.43,0,0,1,0,1c-.16.24-1.2.35-1.48.35H1.46c-.7,0-1.33,1-1.33,1.73v.17h16v-.17c0-.72-.64-1.73-1.33-1.73Z"/><polygon class="cls-1" points="15.46 17.61 4.79 17.61 4.79 15.45 3.13 17.61 0.79 17.61 0.79 13.28 15.46 13.28 15.46 17.61"/><line class="cls-1" x1="13.46" y1="13.69" x2="13.46" y2="17.61"/><line class="cls-1" x1="11.46" y1="14.6" x2="11.46" y2="17.61"/><line class="cls-1" x1="9.46" y1="15.8" x2="9.46" y2="17.61"/></g></g></svg>