<svg xmlns="http://www.w3.org/2000/svg" viewBox="0 0 16 16"><defs><style>.cls-1{fill:#bdbdbd;}.cls-2{fill:none;stroke:#000;stroke-linecap:round;stroke-linejoin:round;stroke-width:0.25px;}</style></defs><title>cleanser with gray bg box_1</title><g id="Layer_2" data-name="Layer 2"><g id="Layer_4" data-name="Layer 4"><rect class="cls-1" width="16" height="16"/><path class="cls-2" d="M8.92,9c-.11,0-.52,0-.58-.14a.56.56,0,0,1,0-.41,1.61,1.61,0,0,0,.13-.68l0-2.33c0-.47-.05-.86-.51-.86s-.47.34-.47.81V7.76a1.61,1.61,0,0,0,.13.68.56.56,0,0,1,0,.41c-.06.09-.47.14-.58.14H5.38c-.27,0-.52.4-.52.68v.07h6.28V9.66c0-.28-.25-.68-.52-.68Z"/><polygon class="cls-2" points="10.88 11.43 6.69 11.43 6.69 10.58 6.04 11.43 5.12 11.43 5.12 9.73 10.88 9.73 10.88 11.43"/><line class="cls-2" x1="10.09" y1="9.89" x2="10.09" y2="11.43"/><line class="cls-2" x1="9.31" y1="10.25" x2="9.31" y2="11.43"/><line class="cls-2" x1="8.52" y1="10.72" x2="8.52" y2="11.43"/></g></g></svg>