<svg xmlns="http://www.w3.org/2000/svg" viewBox="0 0 291 259"><defs><style>.cls-1{fill:#bdbdbd;}.cls-2{fill:none;stroke:#000;stroke-linecap:round;stroke-linejoin:round;stroke-width:2px;}</style></defs><title>Cleanser with Gray box</title><g id="Layer_2" data-name="Layer 2"><g id="Layer_4" data-name="Layer 4"><rect class="cls-1" width="291" height="259"/><path class="cls-2" d="M159.25,137.77c-1.64,0-7.8-.69-8.72-2.25s-.61-5,0-6.76a29.16,29.16,0,0,0,2-11.27l.68-38.77c0-7.85-.75-14.22-7.59-14.22s-7.08,5.68-7.08,13.53v39.46a29.18,29.18,0,0,0,2,11.27c.61,1.75.92,5.2,0,6.76s-7.07,2.25-8.72,2.25H106.23c-4.1,0-7.85,6.56-7.85,11.27v1.13h94.25V149c0-4.71-3.75-11.27-7.85-11.27Z"/><polygon class="cls-2" points="188.7 178.38 125.86 178.38 125.86 164.28 116.05 178.38 102.3 178.38 102.3 150.17 188.7 150.17 188.7 178.38"/><line class="cls-2" x1="176.92" y1="152.86" x2="176.92" y2="178.38"/><line class="cls-2" x1="165.14" y1="158.75" x2="165.14" y2="178.38"/><line class="cls-2" x1="153.35" y1="166.6" x2="153.35" y2="178.38"/></g></g></svg>