<svg xmlns="http://www.w3.org/2000/svg" viewBox="0 0 28.6 34.45"><defs><style>.cls-1{fill:none;stroke:#000;stroke-linecap:round;stroke-linejoin:round;stroke-width:0.5px;}</style></defs><title>Cleanser</title><g id="Layer_2" data-name="Layer 2"><g id="Layer_3" data-name="Layer 3"><path class="cls-1" d="M18.4,22.1c-.49,0-2.32-.21-2.6-.67a3,3,0,0,1,0-2A8.69,8.69,0,0,0,16.38,16l.2-11.56c0-2.34-.22-4.24-2.26-4.24s-2.11,1.69-2.11,4V16a8.7,8.7,0,0,0,.59,3.36,3.05,3.05,0,0,1,0,2c-.27.47-2.11.67-2.6.67H2.59c-1.22,0-2.34,2-2.34,3.36v.34h28.1v-.34c0-1.4-1.12-3.36-2.34-3.36Z"/><polygon class="cls-1" points="27.18 34.2 8.45 34.2 8.45 30 5.52 34.2 1.42 34.2 1.42 25.79 27.18 25.79 27.18 34.2"/><line class="cls-1" x1="23.67" y1="26.59" x2="23.67" y2="34.2"/><line class="cls-1" x1="20.15" y1="28.35" x2="20.15" y2="34.2"/><line class="cls-1" x1="16.64" y1="30.69" x2="16.64" y2="34.2"/></g></g></svg>