<svg xmlns="http://www.w3.org/2000/svg" viewBox="0 0 11.26 13.5"><defs><style>.cls-1{fill:none;stroke:#000;stroke-linecap:round;stroke-linejoin:round;stroke-width:0.5px;}</style></defs><title>Cleanser_1</title><g id="Layer_2" data-name="Layer 2"><g id="Layer_3" data-name="Layer 3"><path class="cls-1" d="M7.2,8.61c-.19,0-.89-.08-1-.26a1.17,1.17,0,0,1,0-.77A3.33,3.33,0,0,0,6.43,6.3l.08-4.43C6.51,1,6.42.25,5.64.25S4.83.9,4.83,1.79V6.3a3.33,3.33,0,0,0,.22,1.29,1.17,1.17,0,0,1,0,.77c-.11.18-.81.26-1,.26H1.15c-.47,0-.9.75-.9,1.29V10H11V9.9c0-.54-.43-1.29-.9-1.29Z"/><polygon class="cls-1" points="10.56 13.25 3.39 13.25 3.39 11.64 2.27 13.25 0.7 13.25 0.7 10.03 10.56 10.03 10.56 13.25"/><line class="cls-1" x1="9.22" y1="10.34" x2="9.22" y2="13.25"/><line class="cls-1" x1="7.87" y1="11.01" x2="7.87" y2="13.25"/><line class="cls-1" x1="6.53" y1="11.91" x2="6.53" y2="13.25"/></g></g></svg>