<svg xmlns="http://www.w3.org/2000/svg" viewBox="0 0 49 49.92"><defs><style>.cls-1{stroke:#fff;stroke-miterlimit:10;}.cls-2{fill:#fff;}</style></defs><title>dataset </title><g id="Layer_2" data-name="Layer 2"><g id="Layer_39" data-name="Layer 39"><path class="cls-1" d="M.5,9.42v30c0,5.52,10.75,10,24,10s24-4.48,24-10v-30"/><path class="cls-1" d="M.5,15V29.84c0,5.52,10.75,10,24,10s24-4.48,24-10V15"/><path class="cls-1" d="M.5,15.61v3.82c0,5.52,10.75,10,24,10s24-4.48,24-10V15.61"/><path d="M24.88,19.5c-12.74,0-23.5-4.35-23.5-9.5S12.15.5,24.88.5s23.5,4.35,23.5,9.5S37.62,19.5,24.88,19.5Z"/><path class="cls-2" d="M24.88,1c13.76,0,23,4.65,23,9s-9.24,9-23,9-23-4.65-23-9,9.24-9,23-9m0-1C11.63,0,.88,4.48.88,10s10.74,10,24,10,24-4.48,24-10S38.14,0,24.88,0Z"/></g></g></svg>