<svg xmlns="http://www.w3.org/2000/svg" viewBox="0 0 49.87 47.41"><title>Excel black</title><g id="Layer_2" data-name="Layer 2"><g id="Layer_1-2" data-name="Layer 1"><path d="M0,23.7Q0,14.63,0,5.56c0-.24,0-.24.24-.29L7.45,3.91l5.72-1.08L19,1.72,26.22.37,28.11,0c.16,0,.17,0,.17.15q0,2.19,0,4.38c0,.2,0,.2.21.2H47.4a2.41,2.41,0,0,1,1.57.5A2.22,2.22,0,0,1,49.86,7c0,1.13,0,2.27,0,3.4q0,14.91,0,29.82a2.35,2.35,0,0,1-.6,1.63,2.28,2.28,0,0,1-1.6.77H28.53c-.24,0-.24,0-.24.24q0,2.16,0,4.32c0,.22,0,.22-.22.18l-5.53-1-6.36-1.2-6.4-1.21L4.69,43,.41,42.17l-.29-.05C0,42.11,0,42.07,0,42s0-.1,0-.15Q0,32.76,0,23.7Zm47.85,0q0-8.4,0-16.79c0-.2,0-.2-.19-.2H28.47c-.18,0-.19,0-.19.18q0,1.31,0,2.61c0,.21,0,.21.21.21h6.43c.19,0,.19,0,.19.19q0,2,0,4c0,.18,0,.18-.19.18H28.46c-.14,0-.18,0-.18.18,0,.39,0,.77,0,1.16,0,.23,0,.23.22.23h6.42c.22,0,.22,0,.22.22q0,2,0,3.9s0,.07,0,.11,0,.12-.12.12H28.47c-.19,0-.19,0-.19.18q0,.61,0,1.22c0,.26,0,.26.25.26H35c.19,0,.19,0,.19.18,0,1.33,0,2.66,0,4,0,.13,0,.19-.17.17H28.5c-.22,0-.22,0-.22.22q0,.58,0,1.16c0,.21,0,.21.2.21h6.46c.22,0,.22,0,.22.23q0,1.92,0,3.83c0,.26,0,.26-.27.26H28.47c-.18,0-.19,0-.19.18q0,.53,0,1.06c0,.21,0,.21.21.21h6.43c.19,0,.19,0,.19.19q0,2,0,3.91c0,.23,0,.23-.23.23H28.46c-.14,0-.18,0-.18.18,0,.74,0,1.48,0,2.21,0,.15,0,.3,0,.44s0,.19.18.18H47.76a.08.08,0,0,0,.09-.09c0-.05,0-.1,0-.15Q47.85,32.07,47.85,23.71ZM19.44,15l-1.26.08-2.23.16a.22.22,0,0,0-.22.15L14.28,18.6a15.64,15.64,0,0,0-1.09,2.83s0,.09-.06.09-.05-.06-.06-.1a8.05,8.05,0,0,0-.28-1q-.31-.8-.64-1.59l-1.29-3.15a.18.18,0,0,0-.21-.13l-.87.06-2.25.16c-.17,0-.17,0-.1.16l2,4L11,23.24a.29.29,0,0,1,0,.29L9.08,27.06,7.83,29.39,7.1,30.77c0,.07-.07.14.06.15L8.41,31l1.83.12a.15.15,0,0,0,.18-.1l1.73-3.77a9.27,9.27,0,0,0,.77-2.07s0-.08.06-.08,0,.06.06.09a4.69,4.69,0,0,0,.25,1l2.33,5.21a.19.19,0,0,0,.18.13l1.24.08,2.38.16s.08,0,.1,0,0-.06,0-.09L17.58,28c-.8-1.51-1.59-3-2.4-4.52a.36.36,0,0,1,0-.39L17.88,18l1.06-2Z"/><path d="M40.8,20H37.08c-.2,0-.2,0-.2-.2q0-2,0-4c0-.2,0-.2.2-.2h7.47c.19,0,.19,0,.19.19q0,2,0,4c0,.19,0,.19-.2.19Z"/><path d="M40.81,26H37.07c-.2,0-.2,0-.2-.2q0-2,0-4c0-.19,0-.19.19-.19h7.48c.19,0,.19,0,.19.19q0,2,0,4c0,.2,0,.2-.2.2Z"/><path d="M40.81,14.06H37.08c-.2,0-.2,0-.2-.2q0-2,0-3.94c0-.19,0-.19.19-.19h7.49c.14,0,.19,0,.19.18q0,2,0,4c0,.14-.05.18-.19.18Z"/><path d="M40.81,37.68H37.08c-.2,0-.2,0-.2-.2q0-2,0-3.94c0-.19,0-.2.19-.2h7.49c.18,0,.18,0,.18.19q0,2,0,4c0,.19,0,.19-.2.19Z"/><path d="M40.81,27.57h3.72c.21,0,.21,0,.21.2q0,2,0,3.91c0,.2,0,.21-.21.21H37.08c-.2,0-.2,0-.2-.2q0-2,0-3.93c0-.2,0-.2.2-.2Z"/></g></g></svg>