<svg xmlns="http://www.w3.org/2000/svg" viewBox="0 0 48.43 46.04"><defs><style>.cls-1{fill:#231f20;}</style></defs><title>excel black icon</title><g id="Layer_2" data-name="Layer 2"><g id="Layer_39" data-name="Layer 39"><path class="cls-1" d="M0,23Q0,14.21,0,5.4c0-.24,0-.24.23-.28l7-1.32,5.55-1,5.7-1.08,7-1.31L27.3,0c.16,0,.17,0,.17.14q0,2.13,0,4.26c0,.2,0,.2.2.2H46a2.34,2.34,0,0,1,1.53.49,2.16,2.16,0,0,1,.86,1.73c0,1.1,0,2.2,0,3.3q0,14.48,0,29a2.28,2.28,0,0,1-.58,1.59,2.21,2.21,0,0,1-1.56.75H27.71c-.23,0-.23,0-.23.23q0,2.1,0,4.19c0,.21,0,.21-.21.17l-5.37-1-6.17-1.16L9.5,42.67l-4.95-.93L.4,41l-.28-.05c-.08,0-.13-.05-.12-.14s0-.1,0-.15Q0,31.82,0,23Zm46.48,0q0-8.15,0-16.31c0-.19,0-.19-.18-.19H27.65c-.18,0-.18,0-.18.18q0,1.27,0,2.54c0,.2,0,.2.21.2h6.25c.19,0,.19,0,.19.19q0,1.92,0,3.84c0,.18,0,.18-.18.18H27.64c-.14,0-.18,0-.17.17,0,.38,0,.75,0,1.13,0,.22,0,.22.22.22h6.23c.21,0,.21,0,.21.22q0,1.89,0,3.79s0,.07,0,.11,0,.11-.11.11H27.65c-.18,0-.18,0-.18.18q0,.59,0,1.18c0,.25,0,.25.24.25h6.23c.18,0,.19,0,.19.18,0,1.29,0,2.59,0,3.88,0,.13,0,.18-.17.17H27.68c-.21,0-.21,0-.21.21q0,.56,0,1.13c0,.2,0,.2.2.2h6.27c.22,0,.22,0,.22.22q0,1.86,0,3.72c0,.25,0,.25-.26.25H27.65c-.18,0-.18,0-.18.18q0,.52,0,1c0,.2,0,.2.21.2h6.25c.19,0,.19,0,.19.19q0,1.9,0,3.8c0,.22,0,.22-.22.22H27.64c-.14,0-.18,0-.17.17,0,.72,0,1.43,0,2.15,0,.14,0,.29,0,.43s0,.19.18.17H46.39a.08.08,0,0,0,.09-.09s0-.1,0-.15Q46.48,31.15,46.48,23Zm-27.6-8.45-1.22.08-2.17.15a.21.21,0,0,0-.21.14l-1.41,3.12a15.19,15.19,0,0,0-1.06,2.75s0,.09-.06.09,0-.06-.06-.09a7.82,7.82,0,0,0-.27-.93q-.3-.78-.62-1.55l-1.25-3.06a.17.17,0,0,0-.2-.13l-.84.06-2.18.15c-.16,0-.17,0-.09.16l1.91,3.92,1.53,3.13a.28.28,0,0,1,0,.29L8.82,26.28,7.61,28.54,6.9,29.88c0,.07-.07.13.06.14l1.22.08,1.78.12a.14.14,0,0,0,.17-.1l1.68-3.66a9,9,0,0,0,.75-2s0-.08.05-.08,0,.06.06.09a4.56,4.56,0,0,0,.25.93l2.26,5.06a.19.19,0,0,0,.18.13l1.2.08,2.32.16s.08,0,.1,0,0-.06,0-.08l-1.87-3.52c-.78-1.46-1.55-2.93-2.33-4.39a.35.35,0,0,1,0-.38l2.62-5,1-1.95Z"/><path class="cls-1" d="M39.62,19.4H36c-.19,0-.19,0-.19-.19q0-1.92,0-3.84c0-.19,0-.19.2-.19h7.25c.19,0,.19,0,.19.19q0,1.93,0,3.85c0,.18,0,.18-.19.18Z"/><path class="cls-1" d="M39.63,25.23H36c-.19,0-.19,0-.19-.19q0-1.92,0-3.84c0-.19,0-.19.19-.19h7.27c.18,0,.19,0,.19.19q0,1.92,0,3.84c0,.19,0,.19-.19.19Z"/><path class="cls-1" d="M39.64,13.65H36c-.2,0-.2,0-.2-.19q0-1.91,0-3.83c0-.19,0-.19.18-.19h7.28c.13,0,.18,0,.18.17q0,1.93,0,3.87c0,.14-.05.17-.18.17Z"/><path class="cls-1" d="M39.64,36.6H36c-.2,0-.2,0-.2-.19q0-1.91,0-3.83c0-.19,0-.19.18-.19h7.28c.17,0,.18,0,.18.18q0,1.92,0,3.84c0,.18,0,.18-.19.18Z"/><path class="cls-1" d="M39.64,26.77h3.61c.2,0,.2,0,.2.2q0,1.9,0,3.8c0,.2,0,.2-.21.2H36c-.19,0-.19,0-.19-.19q0-1.91,0-3.81c0-.19,0-.19.2-.19Z"/></g></g></svg>