<svg xmlns="http://www.w3.org/2000/svg" viewBox="0 0 43.64 43.64"><title>Facebook black</title><g id="Layer_2" data-name="Layer 2"><g id="Layer_1-2" data-name="Layer 1"><path d="M23.39,43.62c-7.56,0-15.12,0-22.67,0-.6,0-.72-.12-.71-.71Q0,21.47,0,0,21.47,0,42.92,0c.6,0,.72.12.71.71q0,21.11,0,42.21c0,.6-.12.72-.71.72-4.3,0-8.6,0-12.91,0q0-7.8,0-15.61c0-1.33,0-1.35,1.38-1.35,1.13,0,2.27,0,3.4,0a.86.86,0,0,0,1-.88c.17-1.47.38-2.94.57-4.41.12-.92,0-1.09-.95-1.1q-2.27,0-4.53,0c-.56,0-.89-.21-.88-.81,0-1.31-.05-2.62,0-3.92.14-2,1-2.79,3-2.83.93,0,1.86,0,2.79,0,.61,0,.92-.2.91-.86,0-1.37,0-2.73,0-4.1A.76.76,0,0,0,36,6.87c-1.51-.05-3-.2-4.53-.15-4.94.18-7.94,3.3-8,8.26,0,1.4,0,2.79,0,4.19,0,.84-.3,1.14-1.12,1.11-1.25,0-2.5,0-3.75,0-.63,0-.89.26-.88.89,0,1.51,0,3,0,4.53,0,.71.25,1,1,1,1.28,0,2.56,0,3.84,0,.67,0,.94.25.94.92Q23.39,35.6,23.39,43.62Z"/></g></g></svg>