<svg xmlns="http://www.w3.org/2000/svg" viewBox="0 0 67.08 48.74"><title>Frequency Analysis black icon</title><g id="Layer_2" data-name="Layer 2"><g id="Layer_1-2" data-name="Layer 1"><circle cx="33.48" cy="24.37" r="2.74"/><path d="M57.24.61a2.09,2.09,0,1,0-3,3,29.41,29.41,0,0,1,0,41.6,2.09,2.09,0,1,0,3,3,33.6,33.6,0,0,0,0-47.52Z"/><path d="M49.49,8.36a2.09,2.09,0,1,0-3,3,18.46,18.46,0,0,1,0,26.1,2.09,2.09,0,1,0,3,3,22.64,22.64,0,0,0,0-32Z"/><path d="M38.78,16.11a2.09,2.09,0,0,0,0,3,7.49,7.49,0,0,1,0,10.6,2.09,2.09,0,0,0,3,3,11.67,11.67,0,0,0,0-16.52A2.09,2.09,0,0,0,38.78,16.11Z"/><path d="M4.18,24.37A29.21,29.21,0,0,1,12.8,3.57a2.09,2.09,0,0,0-3-3,33.6,33.6,0,0,0,0,47.52,2.09,2.09,0,1,0,3-3A29.21,29.21,0,0,1,4.18,24.37Z"/><path d="M20.43,8.36a2.09,2.09,0,0,0-3,0,22.64,22.64,0,0,0,0,32,2.09,2.09,0,0,0,3-3,18.46,18.46,0,0,1,0-26.1A2.09,2.09,0,0,0,20.43,8.36Z"/><path d="M28.18,16.11a2.09,2.09,0,0,0-3,0,11.68,11.68,0,0,0,0,16.52,2.09,2.09,0,0,0,3-3,7.5,7.5,0,0,1,0-10.6A2.09,2.09,0,0,0,28.18,16.11Z"/></g></g></svg>