<svg xmlns="http://www.w3.org/2000/svg" viewBox="0 0 13.08 13.5"><defs><style>.cls-1{fill:none;stroke:#000;stroke-linecap:round;stroke-linejoin:round;stroke-width:0.5px;}</style></defs><title>Function_1</title><g id="Layer_2" data-name="Layer 2"><g id="Layer_3" data-name="Layer 3"><path class="cls-1" d="M1.1,7,.25,8.47,1.1,9a2.78,2.78,0,0,0,0,1.23l-.85.49.85,1.47.82-.49a4,4,0,0,0,1,.62v1h1.7v-1a2,2,0,0,0,1.09-.62l.87.49.86-1.47-.84-.49A2.78,2.78,0,0,0,6.61,9l.85-.49L6.61,7l-.88.49a2,2,0,0,0-1.09-.62V6.09H2.94v.79a4,4,0,0,0-1,.62Z"/><circle class="cls-1" cx="3.86" cy="9.58" r="1.13"/><path class="cls-1" d="M6.47,1.35,5.62,2.82l.85.49a2.78,2.78,0,0,0,0,1.23L5.62,5l.85,1.47L7.28,6a4,4,0,0,0,1,.62v.81H10V6.62A2,2,0,0,0,11.1,6l.87.49L12.82,5,12,4.54a2.78,2.78,0,0,0,0-1.23l.85-.49L12,1.35l-.88.49A2,2,0,0,0,10,1.23v-1H8.31v1a4,4,0,0,0-1,.62Z"/><circle class="cls-1" cx="9.22" cy="3.92" r="1.13"/></g></g></svg>