<svg xmlns="http://www.w3.org/2000/svg" viewBox="0 0 29.75 30.73"><defs><style>.cls-1{fill:none;stroke:#000;stroke-linecap:round;stroke-linejoin:round;stroke-width:0.5px;}</style></defs><title>Function</title><g id="Layer_2" data-name="Layer 2"><g id="Layer_3" data-name="Layer 3"><path class="cls-1" d="M2.22,16l-2,3.41,2,1.14a6.47,6.47,0,0,0,0,2.85l-2,1.14,2,3.41,1.9-1.14a9.29,9.29,0,0,0,2.39,1.43v2.27h3.94V28.21A4.76,4.76,0,0,0,13,26.78l2,1.14,2-3.41-2-1.14a6.47,6.47,0,0,0,0-2.85l2-1.14L15,16,13,17.1a4.75,4.75,0,0,0-2.55-1.43V13.82H6.51v1.84A9.28,9.28,0,0,0,4.12,17.1Z"/><circle class="cls-1" cx="8.63" cy="21.94" r="2.63"/><path class="cls-1" d="M14.71,2.81l-2,3.41,2,1.14a6.46,6.46,0,0,0,0,2.85l-2,1.14,2,3.41,1.9-1.14A9.28,9.28,0,0,0,19,15.06V17h3.94V15.06a4.75,4.75,0,0,0,2.54-1.43l2,1.14,2-3.41-2-1.14a6.47,6.47,0,0,0,0-2.85l2-1.14-2-3.41L25.48,4a4.75,4.75,0,0,0-2.55-1.43V.25H19V2.52A9.27,9.27,0,0,0,16.6,4Z"/><circle class="cls-1" cx="21.12" cy="8.79" r="2.63"/></g></g></svg>