<svg xmlns="http://www.w3.org/2000/svg" viewBox="0 0 54 60.71"><defs><style>.cls-1{fill:#bdbdbd;}.cls-2,.cls-3,.cls-4{fill:none;stroke-width:0.75px;}.cls-2,.cls-3{stroke:#010101;}.cls-2,.cls-4{stroke-linecap:round;stroke-linejoin:round;}.cls-3{stroke-miterlimit:10;}.cls-4{stroke:#231f20;}</style></defs><title>icon 1</title><g id="Layer_2" data-name="Layer 2"><g id="Layer_1-2" data-name="Layer 1"><rect class="cls-1" width="54" height="60.71"/><polyline class="cls-2" points="28.46 39.24 20.39 39.24 20.39 21.47 36.74 21.47 36.74 29.54"/><rect class="cls-3" x="22.53" y="22.89" width="1.42" height="1.42"/><line class="cls-3" x1="23.24" y1="22.89" x2="23.24" y2="21.47"/><rect class="cls-3" x="26.08" y="22.89" width="1.42" height="1.42"/><line class="cls-3" x1="26.79" y1="22.89" x2="26.79" y2="21.47"/><rect class="cls-3" x="29.64" y="22.89" width="1.42" height="1.42"/><line class="cls-3" x1="30.35" y1="22.89" x2="30.35" y2="21.47"/><rect class="cls-3" x="33.19" y="22.89" width="1.42" height="1.42"/><line class="cls-3" x1="33.9" y1="22.89" x2="33.9" y2="21.47"/><path class="cls-4" d="M40.33,35s-2.88,4.2-6.43,4.2S27.47,35,27.47,35s2.88-4,6.43-4S40.33,35,40.33,35Z"/><ellipse class="cls-4" cx="33.9" cy="35.04" rx="2.22" ry="2.47"/><path class="cls-4" d="M33.9,33.81A1.24,1.24,0,1,1,32.79,35"/></g></g></svg>