<svg xmlns="http://www.w3.org/2000/svg" viewBox="0 0 54 60.71"><defs><style>.cls-1{fill:#bdbdbd;}.cls-2{fill:none;stroke:#010101;stroke-linecap:round;stroke-linejoin:round;stroke-width:0.5px;}</style></defs><title>icon 6</title><g id="Layer_2" data-name="Layer 2"><g id="Layer_1-2" data-name="Layer 1"><rect class="cls-1" width="54" height="60.71"/><path class="cls-2" d="M14.35,30.95l-2,3.41,2,1.14a6.47,6.47,0,0,0,0,2.85l-2,1.14,2,3.41,1.9-1.14a9.29,9.29,0,0,0,2.39,1.43v2.27h3.94V43.2a4.76,4.76,0,0,0,2.54-1.43l2,1.14,2-3.41-2-1.14a6.47,6.47,0,0,0,0-2.85l2-1.14-2-3.41-2.05,1.14a4.75,4.75,0,0,0-2.55-1.43V28.81H18.63v1.84a9.28,9.28,0,0,0-2.39,1.43Z"/><circle class="cls-2" cx="20.76" cy="36.93" r="2.63"/><path class="cls-2" d="M26.83,17.8l-2,3.41,2,1.14a6.46,6.46,0,0,0,0,2.85l-2,1.14,2,3.41,1.9-1.14a9.28,9.28,0,0,0,2.39,1.43v1.89h3.94V30.05a4.75,4.75,0,0,0,2.54-1.43l2,1.14,2-3.41-2-1.14a6.47,6.47,0,0,0,0-2.85l2-1.14-2-3.41L37.6,18.94a4.75,4.75,0,0,0-2.55-1.43V15.24H31.12v2.27a9.27,9.27,0,0,0-2.39,1.43Z"/><circle class="cls-2" cx="33.24" cy="23.78" r="2.63"/></g></g></svg>