<svg xmlns="http://www.w3.org/2000/svg" viewBox="0 0 54 60.71"><defs><style>.cls-1{fill:#bdbdbd;}.cls-2{fill:none;stroke:#010101;stroke-linecap:round;stroke-linejoin:round;stroke-width:0.5px;}</style></defs><title>icon 4</title><g id="Layer_2" data-name="Layer 2"><g id="Layer_1-2" data-name="Layer 1"><rect class="cls-1" width="54" height="60.71"/><path class="cls-2" d="M30.09,32c-.37,0-1.75-.16-2-.51a2.3,2.3,0,0,1,0-1.52,6.56,6.56,0,0,0,.44-2.54l.15-8.72c0-1.77-.17-3.2-1.71-3.2s-1.59,1.28-1.59,3v8.88A6.57,6.57,0,0,0,25.87,30a2.3,2.3,0,0,1,0,1.52c-.21.35-1.59.51-2,.51H18.16c-.92,0-1.77,1.48-1.77,2.54v.25H37.61v-.25c0-1.06-.84-2.54-1.77-2.54Z"/><polygon class="cls-2" points="36.72 41.17 22.58 41.17 22.58 37.99 20.37 41.17 17.28 41.17 17.28 34.82 36.72 34.82 36.72 41.17"/><line class="cls-2" x1="34.07" y1="35.42" x2="34.07" y2="41.17"/><line class="cls-2" x1="31.42" y1="36.75" x2="31.42" y2="41.17"/><line class="cls-2" x1="28.77" y1="38.52" x2="28.77" y2="41.17"/></g></g></svg>