<svg xmlns="http://www.w3.org/2000/svg" viewBox="0 0 54 60.71"><defs><style>.cls-1{fill:#bdbdbd;}.cls-2{fill:none;stroke:#010101;stroke-linecap:round;stroke-linejoin:round;stroke-width:0.5px;}</style></defs><title>icon 5</title><g id="Layer_2" data-name="Layer 2"><g id="Layer_1-2" data-name="Layer 1"><rect class="cls-1" width="54" height="60.71"/><path class="cls-2" d="M27,41.93H38.58a10.21,10.21,0,0,0-1-4.09c-.75-1.5-3.75-2.39-7.78-3.9v-3A4.48,4.48,0,0,0,31,27.78c.5,0,1-2,0-2.52,0-.3,1.35-2.82,1-4.53-.5-2.52-7.55-2.52-8.06-.5-3,0-1,4.63-1,5-1,.5-.5,2.52,0,2.52a3.85,3.85,0,0,0,1.23,3v3.19c-4,1.51-7,2.4-7.78,3.9a10.21,10.21,0,0,0-1,4.09Z"/></g></g></svg>