<svg xmlns="http://www.w3.org/2000/svg" viewBox="0 0 242.98 100.02"><defs><style>.cls-1{fill:#fff;}.cls-2{fill:#ff6;}.cls-3{fill:#ffff8a;}.cls-4{fill:#ff0;}.cls-5{fill:#f7aa52;}.cls-6{fill:#f7bc77;}.cls-7{fill:#f7931e;}</style></defs><title>iDS logo</title><g id="Layer_2" data-name="Layer 2"><g id="Layer_1-2" data-name="Layer 1"><path class="cls-1" d="M159.12,40.88h-4a6,6,0,0,1-.09-.75c0-.29,0-.6,0-.94s0-.67,0-1a6.17,6.17,0,0,1,.09-.81h8.11V69.21a9.6,9.6,0,0,1-1,.09l-1,0-1,0a9.8,9.8,0,0,1-1.06-.09Zm-2.06-11.29Q157,29,157,28.21c0-.54,0-1,0-1.37s0-.75,0-1.25.05-.91.09-1.25q.56-.06,1.37-.09l1.37,0,1.25,0q.75,0,1.25.09c0,.33.07.75.09,1.25s0,.92,0,1.25,0,.83,0,1.37-.05,1-.09,1.37q-.5.06-1.25.09l-1.25,0-1.37,0Q157.63,29.65,157.07,29.59Z"/><path class="cls-1" d="M175,24.35q.87-.12,2.15-.25t2.71-.22q1.43-.09,2.87-.16t2.62-.06a29.61,29.61,0,0,1,10.2,1.59,18.65,18.65,0,0,1,7.17,4.55A18.44,18.44,0,0,1,207,37a31.46,31.46,0,0,1,1.37,9.64q0,23.27-23,23.27-1.31,0-2.81-.06t-2.9-.16q-1.4-.09-2.62-.25l-2-.28Zm4.31,41.12q1.12.13,2.65.25t3.15.12a29.81,29.81,0,0,0,7.77-.94,13.87,13.87,0,0,0,5.9-3.18,14.5,14.5,0,0,0,3.74-6,28.15,28.15,0,0,0,1.31-9.27q0-9.67-5-14.2t-13.76-4.52q-1.44,0-3.09.06a20.7,20.7,0,0,0-2.71.25Z"/><path class="cls-1" d="M217,64.22q.87.25,1.81.56a19.63,19.63,0,0,0,2.09.56q1.15.25,2.59.44a25.91,25.91,0,0,0,3.31.19,16.34,16.34,0,0,0,5.15-.72,10.36,10.36,0,0,0,3.56-1.93,7.64,7.64,0,0,0,2.09-2.87,9.26,9.26,0,0,0,.69-3.59,9.81,9.81,0,0,0-.47-3.21,6.38,6.38,0,0,0-1.62-2.46A13,13,0,0,0,233,49q-2-1-5.08-2.21-2.19-.81-4.15-1.75a14.47,14.47,0,0,1-3.46-2.28,9.84,9.84,0,0,1-2.37-3.21,11,11,0,0,1-.87-4.68,10.24,10.24,0,0,1,3.65-8.17q3.65-3.12,10.64-3.12,1.37,0,2.78.13t2.62.31q1.22.19,2.25.44t1.65.44q-.13.94-.34,1.9a16.18,16.18,0,0,1-.53,1.84,29.8,29.8,0,0,0-8.49-1.31q-5.18,0-7.42,2.12a7.06,7.06,0,0,0-2.25,5.37,6,6,0,0,0,.69,2.93,7,7,0,0,0,1.9,2.18,15.25,15.25,0,0,0,2.9,1.72q1.68.78,3.62,1.53,2.62,1.06,4.9,2.18a16.4,16.4,0,0,1,3.9,2.62A11.06,11.06,0,0,1,242,51.52a11.63,11.63,0,0,1,.94,4.9,13.75,13.75,0,0,1-1.15,5.77,11.57,11.57,0,0,1-3.28,4.24,14.8,14.8,0,0,1-5.18,2.62,24.2,24.2,0,0,1-6.86.9,29.45,29.45,0,0,1-6.12-.53q-2.43-.53-4.55-1.22a14.3,14.3,0,0,1,.44-2A16.74,16.74,0,0,1,217,64.22Z"/><g id="Layer_2-2" data-name="Layer 2"><g id="Layer_1-2-2" data-name="Layer 1-2"><path class="cls-2" d="M1.94,62.59A60.25,60.25,0,0,0,26.32,49.88,60.26,60.26,0,0,0,1.8,37.13a44.33,44.33,0,0,0,.14,25.48Z"/><path class="cls-3" d="M27.66,46.92A54.46,54.46,0,0,0,46.91,5.64,53.51,53.51,0,0,0,46.61,0C25.75,1.73,8.58,15.65,3.16,34.17A60.26,60.26,0,0,1,27.66,46.92Z"/><path class="cls-4" d="M27.66,53.11A54.46,54.46,0,0,1,46.91,94.38a53.51,53.51,0,0,1-.29,5.64C25.75,98.3,8.58,84.38,3.16,65.86A60.26,60.26,0,0,0,27.66,53.11Z"/><path class="cls-5" d="M98.09,62.59A60.25,60.25,0,0,1,73.7,49.88,60.26,60.26,0,0,1,98.23,37.13a44.33,44.33,0,0,1-.14,25.48Z"/><path class="cls-6" d="M72.37,46.92A54.46,54.46,0,0,1,53.12,5.64,53.51,53.51,0,0,1,53.42,0c20.87,1.73,38,15.65,43.45,34.17A60.26,60.26,0,0,0,72.37,46.92Z"/><path class="cls-7" d="M72.37,53.11A54.46,54.46,0,0,0,53.12,94.38a53.51,53.51,0,0,0,.29,5.64c20.87-1.73,38-15.65,43.45-34.17A60.26,60.26,0,0,1,72.37,53.11Z"/></g></g></g></g></svg>