<svg xmlns="http://www.w3.org/2000/svg" viewBox="0 0 201.42 225.26"><defs><style>.cls-1{fill:#e88a1c;}.cls-2{fill:#fff;}</style></defs><title>Layout 13 Orange BG</title><g id="Layer_2" data-name="Layer 2"><g id="Layer_8" data-name="Layer 8"><rect class="cls-1" width="201.42" height="225.26"/><rect class="cls-2" x="134.31" y="17.35" width="24.07" height="21.46"/><rect class="cls-2" x="164.33" y="17.35" width="24.07" height="21.46"/><rect class="cls-2" x="134.31" y="44.68" width="24.07" height="21.46"/><rect class="cls-2" x="164.33" y="44.68" width="24.07" height="21.46"/><rect class="cls-2" x="134.31" y="72" width="24.07" height="21.46"/><rect class="cls-2" x="164.33" y="72" width="24.07" height="21.46"/><rect class="cls-2" x="134.31" y="99.33" width="24.07" height="21.46"/><rect class="cls-2" x="164.33" y="99.33" width="24.07" height="21.46"/><rect class="cls-2" x="73.61" y="17.35" width="24.07" height="21.46"/><rect class="cls-2" x="103.63" y="17.35" width="24.07" height="21.46"/><rect class="cls-2" x="73.61" y="44.68" width="24.07" height="21.46"/><rect class="cls-2" x="103.63" y="44.68" width="24.07" height="21.46"/><rect class="cls-2" x="73.61" y="72" width="24.07" height="21.46"/><rect class="cls-2" x="103.63" y="72" width="24.07" height="21.46"/><rect class="cls-2" x="73.61" y="99.33" width="24.07" height="21.46"/><rect class="cls-2" x="103.63" y="99.33" width="24.07" height="21.46"/><rect class="cls-2" x="13.03" y="17.35" width="54.3" height="48.78"/><rect class="cls-2" x="13.03" y="72" width="54.3" height="48.78"/></g></g></svg>