<svg xmlns="http://www.w3.org/2000/svg" viewBox="0 0 175.5 103.68"><defs><style>.cls-1{fill:#fff;stroke:#000;stroke-linecap:round;stroke-linejoin:round;stroke-width:0.25px;stroke-dasharray:0.8 1;}</style></defs><title>Layout 12</title><g id="Layer_2" data-name="Layer 2"><g id="Layer_8" data-name="Layer 8"><rect class="cls-1" x="121.3" y="0.12" width="24.07" height="21.46"/><rect class="cls-1" x="151.31" y="0.12" width="24.07" height="21.46"/><rect class="cls-1" x="121.3" y="27.45" width="24.07" height="21.46"/><rect class="cls-1" x="151.31" y="27.45" width="24.07" height="21.46"/><rect class="cls-1" x="121.3" y="54.78" width="24.07" height="21.46"/><rect class="cls-1" x="151.31" y="54.78" width="24.07" height="21.46"/><rect class="cls-1" x="121.3" y="82.1" width="24.07" height="21.46"/><rect class="cls-1" x="151.31" y="82.1" width="24.07" height="21.46"/><rect class="cls-1" x="0.13" y="0.12" width="24.07" height="21.46"/><rect class="cls-1" x="30.14" y="0.12" width="24.07" height="21.46"/><rect class="cls-1" x="0.13" y="27.45" width="24.07" height="21.46"/><rect class="cls-1" x="30.14" y="27.45" width="24.07" height="21.46"/><rect class="cls-1" x="0.13" y="54.78" width="24.07" height="21.46"/><rect class="cls-1" x="30.14" y="54.78" width="24.07" height="21.46"/><rect class="cls-1" x="0.13" y="82.1" width="24.07" height="21.46"/><rect class="cls-1" x="30.14" y="82.1" width="24.07" height="21.46"/><rect class="cls-1" x="60.71" y="0.13" width="54.3" height="48.78"/><rect class="cls-1" x="60.71" y="54.78" width="54.3" height="48.78"/></g></g></svg>