<svg xmlns="http://www.w3.org/2000/svg" viewBox="0 0 175.39 103.68"><defs><style>.cls-1{fill:#fff;}.cls-2,.cls-3,.cls-4,.cls-5,.cls-6{fill:none;stroke:#000;stroke-linecap:round;stroke-linejoin:round;stroke-width:0.25px;}.cls-3{stroke-dasharray:0.82 1.03;}.cls-4{stroke-dasharray:0.79 0.99;}.cls-5{stroke-dasharray:0.8 1;}.cls-6{stroke-dasharray:0.8 1;}</style></defs><title>Layout 2</title><g id="Layer_2" data-name="Layer 2"><g id="Layer_8" data-name="Layer 8"><rect class="cls-1" x="60.71" y="0.12" width="24.07" height="21.46"/><polyline class="cls-2" points="84.78 21.18 84.78 21.58 84.38 21.58"/><line class="cls-3" x1="83.35" y1="21.58" x2="61.63" y2="21.58"/><polyline class="cls-2" points="61.11 21.58 60.71 21.58 60.71 21.18"/><line class="cls-4" x1="60.71" y1="20.19" x2="60.71" y2="1.02"/><polyline class="cls-2" points="60.71 0.53 60.71 0.13 61.11 0.13"/><line class="cls-3" x1="62.14" y1="0.13" x2="83.86" y2="0.13"/><polyline class="cls-2" points="84.38 0.13 84.78 0.13 84.78 0.53"/><line class="cls-4" x1="84.78" y1="1.52" x2="84.78" y2="20.68"/><rect class="cls-1" x="90.73" y="0.12" width="24.07" height="21.46"/><polyline class="cls-2" points="114.79 21.18 114.79 21.58 114.39 21.58"/><line class="cls-3" x1="113.36" y1="21.58" x2="91.64" y2="21.58"/><polyline class="cls-2" points="91.13 21.58 90.73 21.58 90.73 21.18"/><line class="cls-4" x1="90.73" y1="20.19" x2="90.73" y2="1.02"/><polyline class="cls-2" points="90.73 0.53 90.73 0.13 91.13 0.13"/><line class="cls-3" x1="92.16" y1="0.13" x2="113.88" y2="0.13"/><polyline class="cls-2" points="114.39 0.13 114.79 0.13 114.79 0.53"/><line class="cls-4" x1="114.79" y1="1.52" x2="114.79" y2="20.68"/><rect class="cls-1" x="60.71" y="27.45" width="24.07" height="21.46"/><polyline class="cls-2" points="84.78 48.51 84.78 48.91 84.38 48.91"/><line class="cls-3" x1="83.35" y1="48.91" x2="61.63" y2="48.91"/><polyline class="cls-2" points="61.11 48.91 60.71 48.91 60.71 48.51"/><line class="cls-4" x1="60.71" y1="47.51" x2="60.71" y2="28.35"/><polyline class="cls-2" points="60.71 27.85 60.71 27.45 61.11 27.45"/><line class="cls-3" x1="62.14" y1="27.45" x2="83.86" y2="27.45"/><polyline class="cls-2" points="84.38 27.45 84.78 27.45 84.78 27.85"/><line class="cls-4" x1="84.78" y1="28.84" x2="84.78" y2="48.01"/><rect class="cls-1" x="90.73" y="27.45" width="24.07" height="21.46"/><polyline class="cls-2" points="114.79 48.51 114.79 48.91 114.39 48.91"/><line class="cls-3" x1="113.36" y1="48.91" x2="91.64" y2="48.91"/><polyline class="cls-2" points="91.13 48.91 90.73 48.91 90.73 48.51"/><line class="cls-4" x1="90.73" y1="47.51" x2="90.73" y2="28.35"/><polyline class="cls-2" points="90.73 27.85 90.73 27.45 91.13 27.45"/><line class="cls-3" x1="92.16" y1="27.45" x2="113.88" y2="27.45"/><polyline class="cls-2" points="114.39 27.45 114.79 27.45 114.79 27.85"/><line class="cls-4" x1="114.79" y1="28.84" x2="114.79" y2="48.01"/><rect class="cls-1" x="60.71" y="54.78" width="24.07" height="21.46"/><polyline class="cls-2" points="84.78 75.83 84.78 76.23 84.38 76.23"/><line class="cls-3" x1="83.35" y1="76.23" x2="61.63" y2="76.23"/><polyline class="cls-2" points="61.11 76.23 60.71 76.23 60.71 75.83"/><line class="cls-4" x1="60.71" y1="74.84" x2="60.71" y2="55.67"/><polyline class="cls-2" points="60.71 55.18 60.71 54.78 61.11 54.78"/><line class="cls-3" x1="62.14" y1="54.78" x2="83.86" y2="54.78"/><polyline class="cls-2" points="84.38 54.78 84.78 54.78 84.78 55.18"/><line class="cls-4" x1="84.78" y1="56.17" x2="84.78" y2="75.34"/><rect class="cls-1" x="90.73" y="54.78" width="24.07" height="21.46"/><polyline class="cls-2" points="114.79 75.83 114.79 76.23 114.39 76.23"/><line class="cls-3" x1="113.36" y1="76.23" x2="91.64" y2="76.23"/><polyline class="cls-2" points="91.13 76.23 90.73 76.23 90.73 75.83"/><line class="cls-4" x1="90.73" y1="74.84" x2="90.73" y2="55.67"/><polyline class="cls-2" points="90.73 55.18 90.73 54.78 91.13 54.78"/><line class="cls-3" x1="92.16" y1="54.78" x2="113.88" y2="54.78"/><polyline class="cls-2" points="114.39 54.78 114.79 54.78 114.79 55.18"/><line class="cls-4" x1="114.79" y1="56.17" x2="114.79" y2="75.34"/><rect class="cls-1" x="60.71" y="82.1" width="24.07" height="21.46"/><polyline class="cls-2" points="84.78 103.16 84.78 103.56 84.38 103.56"/><line class="cls-3" x1="83.35" y1="103.56" x2="61.63" y2="103.56"/><polyline class="cls-2" points="61.11 103.56 60.71 103.56 60.71 103.16"/><line class="cls-4" x1="60.71" y1="102.16" x2="60.71" y2="83"/><polyline class="cls-2" points="60.71 82.5 60.71 82.1 61.11 82.1"/><line class="cls-3" x1="62.14" y1="82.1" x2="83.86" y2="82.1"/><polyline class="cls-2" points="84.38 82.1 84.78 82.1 84.78 82.5"/><line class="cls-4" x1="84.78" y1="83.5" x2="84.78" y2="102.66"/><rect class="cls-1" x="90.73" y="82.1" width="24.07" height="21.46"/><polyline class="cls-2" points="114.79 103.16 114.79 103.56 114.39 103.56"/><line class="cls-3" x1="113.36" y1="103.56" x2="91.64" y2="103.56"/><polyline class="cls-2" points="91.13 103.56 90.73 103.56 90.73 103.16"/><line class="cls-4" x1="90.73" y1="102.16" x2="90.73" y2="83"/><polyline class="cls-2" points="90.73 82.5 90.73 82.1 91.13 82.1"/><line class="cls-3" x1="92.16" y1="82.1" x2="113.88" y2="82.1"/><polyline class="cls-2" points="114.39 82.1 114.79 82.1 114.79 82.5"/><line class="cls-4" x1="114.79" y1="83.5" x2="114.79" y2="102.66"/><rect class="cls-1" x="121.19" y="0.12" width="54.08" height="48.78"/><polyline class="cls-2" points="175.27 48.51 175.27 48.91 174.87 48.91"/><line class="cls-5" x1="173.87" y1="48.91" x2="122.09" y2="48.91"/><polyline class="cls-2" points="121.59 48.91 121.19 48.91 121.19 48.51"/><line class="cls-6" x1="121.19" y1="47.5" x2="121.19" y2="1.03"/><polyline class="cls-2" points="121.19 0.53 121.19 0.13 121.59 0.13"/><line class="cls-5" x1="122.59" y1="0.13" x2="174.37" y2="0.13"/><polyline class="cls-2" points="174.87 0.13 175.27 0.13 175.27 0.53"/><line class="cls-6" x1="175.27" y1="1.53" x2="175.27" y2="48"/><rect class="cls-1" x="0.13" y="0.12" width="54.08" height="48.78"/><polyline class="cls-2" points="54.2 48.51 54.2 48.91 53.8 48.91"/><line class="cls-5" x1="52.8" y1="48.91" x2="1.03" y2="48.91"/><polyline class="cls-2" points="0.53 48.91 0.13 48.91 0.13 48.51"/><line class="cls-6" x1="0.13" y1="47.5" x2="0.13" y2="1.03"/><polyline class="cls-2" points="0.13 0.53 0.13 0.13 0.53 0.13"/><line class="cls-5" x1="1.53" y1="0.13" x2="53.3" y2="0.13"/><polyline class="cls-2" points="53.8 0.13 54.2 0.13 54.2 0.53"/><line class="cls-6" x1="54.21" y1="1.53" x2="54.21" y2="48"/><rect class="cls-1" x="0.13" y="54.78" width="54.08" height="48.78"/><polyline class="cls-2" points="54.2 103.16 54.2 103.56 53.8 103.56"/><line class="cls-5" x1="52.8" y1="103.56" x2="1.03" y2="103.56"/><polyline class="cls-2" points="0.53 103.56 0.13 103.56 0.13 103.16"/><line class="cls-6" x1="0.13" y1="102.15" x2="0.13" y2="55.68"/><polyline class="cls-2" points="0.13 55.18 0.13 54.78 0.53 54.78"/><line class="cls-5" x1="1.53" y1="54.78" x2="53.3" y2="54.78"/><polyline class="cls-2" points="53.8 54.78 54.2 54.78 54.2 55.18"/><line class="cls-6" x1="54.21" y1="56.18" x2="54.21" y2="102.66"/><rect class="cls-1" x="121.19" y="54.78" width="54.08" height="48.78"/><polyline class="cls-2" points="175.27 103.16 175.27 103.56 174.87 103.56"/><line class="cls-5" x1="173.87" y1="103.56" x2="122.09" y2="103.56"/><polyline class="cls-2" points="121.59 103.56 121.19 103.56 121.19 103.16"/><line class="cls-6" x1="121.19" y1="102.15" x2="121.19" y2="55.68"/><polyline class="cls-2" points="121.19 55.18 121.19 54.78 121.59 54.78"/><line class="cls-5" x1="122.59" y1="54.78" x2="174.37" y2="54.78"/><polyline class="cls-2" points="174.87 54.78 175.27 54.78 175.27 55.18"/><line class="cls-6" x1="175.27" y1="56.18" x2="175.27" y2="102.66"/></g></g></svg>