<svg xmlns="http://www.w3.org/2000/svg" viewBox="0 0 13.5 13.5"><defs><style>.cls-1{fill:none;stroke:#000;stroke-linecap:round;stroke-linejoin:round;stroke-width:0.5px;}</style></defs><title>Model_1</title><g id="Layer_2" data-name="Layer 2"><g id="Layer_3" data-name="Layer 3"><path class="cls-1" d="M6.75,13.25h6.5A5.73,5.73,0,0,0,12.68,11c-.42-.84-2.11-1.34-4.37-2.19V7.07A2.52,2.52,0,0,0,9,5.3c.28,0,.57-1.13,0-1.41a6.1,6.1,0,0,0,.57-2.54C9.29-.06,5.34-.06,5.05,1.07c-1.7,0-.57,2.6-.57,2.83-.57.28-.28,1.41,0,1.41A2.16,2.16,0,0,0,5.18,7V8.77C2.92,9.62,1.24,10.11.82,11a5.73,5.73,0,0,0-.57,2.29Z"/></g></g></svg>