<svg xmlns="http://www.w3.org/2000/svg" viewBox="0 0 11.5 11.5"><defs><style>.cls-1{fill:none;stroke:#000;stroke-linecap:round;stroke-linejoin:round;stroke-width:0.5px;}</style></defs><title>Model new2</title><g id="Layer_2" data-name="Layer 2"><g id="Layer_3" data-name="Layer 3"><path class="cls-1" d="M5.75,11.25h5.5a4.85,4.85,0,0,0-.48-1.94C10.41,8.6,9,8.17,7.08,7.46V6a2.13,2.13,0,0,0,.59-1.5c.24,0,.48-1,0-1.2a5.16,5.16,0,0,0,.48-2.15C7.9,0,4.55,0,4.32.94c-1.43,0-.48,2.2-.48,2.39-.48.24-.24,1.2,0,1.2a1.83,1.83,0,0,0,.59,1.41V7.46C2.51,8.17,1.08,8.6.73,9.31a4.85,4.85,0,0,0-.48,1.94Z"/></g></g></svg>