<svg xmlns="http://www.w3.org/2000/svg" viewBox="0 0 21.32 23.45"><defs><style>.cls-1{fill:#00b48e;}</style></defs><title>RDBMS</title><g id="Layer_2" data-name="Layer 2"><g id="Layer_1-2" data-name="Layer 1"><path class="cls-1" d="M10.66,0C4.68,0,0,2.11,0,4.8,0,6.49,4.75,8.53,10.66,8.53c4.88,0,9.19-1.34,10.66-2.75v-1C21.32,2.11,16.63,0,10.66,0Z"/><path class="cls-1" d="M0,6.78V9.59c0,1.69,4.75,3.73,10.66,3.73,4.88,0,9.19-1.34,10.66-2.75V7.11C19,8.64,14.69,9.59,10.66,9.59,6.43,9.59,2,8.52,0,6.78Z"/><path class="cls-1" d="M0,11.58v2.81c0,1.69,4.75,3.73,10.66,3.73,4.88,0,9.19-1.34,10.66-2.75V11.9c-2.28,1.53-6.63,2.48-10.66,2.48C6.43,14.39,2,13.31,0,11.58Z"/><path class="cls-1" d="M0,16.37v2.28c0,2.69,4.68,4.8,10.66,4.8s10.66-2.11,10.66-4.8v-2c-2.28,1.53-6.63,2.48-10.66,2.48C6.43,19.18,2,18.11,0,16.37Z"/></g></g></svg>