<svg xmlns="http://www.w3.org/2000/svg" viewBox="0 0 37.16 32.36"><defs><style>.cls-1{fill:none;stroke:#000;}.cls-1,.cls-2{stroke-linecap:round;stroke-linejoin:round;stroke-width:0.5px;}.cls-2{fill:#fff;stroke:#231f20;}</style></defs><title>reader dataset</title><g id="Layer_2" data-name="Layer 2"><g id="Layer_3" data-name="Layer 3"><ellipse class="cls-1" cx="12.44" cy="5.33" rx="12.19" ry="5.08"/><path class="cls-1" d="M24.63,10.41c0,2.8-5.46,5.08-12.19,5.08S.25,13.21.25,10.41"/><path class="cls-1" d="M24.63,15.49c0,2.8-5.46,5.08-12.19,5.08S.25,18.29.25,15.49"/><path class="cls-1" d="M.25,5.33V20.56c0,2.8,5.46,5.08,12.19,5.08s12.19-2.27,12.19-5.08V5.33"/><path class="cls-2" d="M36.91,25.37s-5.15,6.74-11.49,6.74-11.49-6.74-11.49-6.74S19.07,19,25.42,19,36.91,25.37,36.91,25.37Z"/><circle class="cls-2" cx="25.42" cy="25.37" r="3.96"/><path class="cls-2" d="M25.42,23.39a2,2,0,1,1-2,2"/></g></g></svg>