<svg xmlns="http://www.w3.org/2000/svg" viewBox="0 0 16.5 14.4"><defs><style>.cls-1{fill:none;stroke:#000;}.cls-1,.cls-2{stroke-linecap:round;stroke-linejoin:round;stroke-width:0.5px;}.cls-2{fill:#fff;stroke:#231f20;}</style></defs><title>Reader dataset 16x17</title><g id="Layer_2" data-name="Layer 2"><g id="Layer_3" data-name="Layer 3"><ellipse class="cls-1" cx="5.57" cy="2.47" rx="5.32" ry="2.22"/><path class="cls-1" d="M10.89,4.68c0,1.22-2.38,2.22-5.32,2.22S.25,5.91.25,4.68"/><path class="cls-1" d="M10.89,6.9c0,1.22-2.38,2.22-5.32,2.22S.25,8.12.25,6.9"/><path class="cls-1" d="M.25,2.47V9.12c0,1.22,2.38,2.22,5.32,2.22s5.32-1,5.32-2.22V2.47"/><path class="cls-2" d="M16.25,11.21s-2.25,2.94-5,2.94-5-2.94-5-2.94,2.25-2.77,5-2.77S16.25,11.21,16.25,11.21Z"/><circle class="cls-2" cx="11.23" cy="11.21" r="1.73"/><path class="cls-2" d="M11.23,10.35a.86.86,0,1,1-.86.86"/></g></g></svg>