<svg xmlns="http://www.w3.org/2000/svg" viewBox="0 0 23.3 23.3"><defs><style>.cls-1{fill:none;stroke:#000;stroke-linecap:round;stroke-linejoin:round;}</style></defs><title>Setting black</title><g id="Layer_2" data-name="Layer 2"><g id="Layer_14" data-name="Layer 14"><path class="cls-1" d="M19.65,12.8H22.8V9.73H19.65a8.5,8.5,0,0,0-1-2.36L20.9,5.14,18.16,2.39,15.93,4.62a9.87,9.87,0,0,0-2.36-1V.5H9.73V3.65a9.77,9.77,0,0,0-2.36,1L5.14,2.39,2.39,5.14,4.62,7.36a10.49,10.49,0,0,0-1,2.36H.5V12.8H3.65a8.92,8.92,0,0,0,1,3.13L2.39,18.16,5.14,20.9l2.23-2.23a24.92,24.92,0,0,0,2.36,1V22.8h3.84V19.65a25.06,25.06,0,0,0,2.36-1l2.23,2.23,2.74-2.74-2.23-2.23A6,6,0,0,0,19.65,12.8Z"/><circle class="cls-1" cx="11.65" cy="11.65" r="4.23" transform="translate(-0.75 22.5) rotate(-86.21)"/></g></g></svg>