<svg xmlns="http://www.w3.org/2000/svg" viewBox="0 0 52.81 43.7"><defs><style>.cls-1{fill:#010101;}</style></defs><title>Twitter black</title><g id="Layer_2" data-name="Layer 2"><g id="Layer_1-2" data-name="Layer 1"><path class="cls-1" d="M0,38.87c.23.32.28.45.37.51.34.22.69.43,1,.61a31.19,31.19,0,0,0,14.74,3.7c9.62,0,17.73-3.41,24-10.81a31.1,31.1,0,0,0,7.5-19.09,5.8,5.8,0,0,1,2.46-5,9.23,9.23,0,0,0,2.71-3.33C50.92,6,49.43,6.7,47.38,6.67A12.1,12.1,0,0,0,51.59.91a28.91,28.91,0,0,1-5.53,2.28,2.13,2.13,0,0,1-2.2-.51A11,11,0,0,0,25.7,12c.11,1.38-.12,1.62-1.49,1.46A31.33,31.33,0,0,1,4.13,3.22c-1-1.07-1.28-1-1.76.34A11,11,0,0,0,4.89,15.4c.34.37.87.61,1,1.31A10.25,10.25,0,0,1,2.83,16c-1.25-.43-1.4-.3-1.18,1a10.82,10.82,0,0,0,6.83,8.69c.38.16.89.13,1.11.65a4.73,4.73,0,0,1-2.51.35c-1.41,0-1.62.34-.93,1.58A10.93,10.93,0,0,0,13.68,34a2.52,2.52,0,0,1,1.58.61A22.11,22.11,0,0,1,0,38.87Z"/></g></g></svg>