<svg xmlns="http://www.w3.org/2000/svg" viewBox="0 0 58 42.08"><defs><style>.cls-1{fill:#fff;}</style></defs><title>Word chart white</title><g id="Layer_2" data-name="Layer 2"><g id="Layer_9" data-name="Layer 9"><path class="cls-1" d="M20.39,27.69a1.07,1.07,0,0,0,1.14,1.15,1.65,1.65,0,0,0,1.61-1.11,1.25,1.25,0,0,0,.07-.38V26.19C21.89,26.16,20.39,26.4,20.39,27.69Z"/><path class="cls-1" d="M29.43,23.75a1.93,1.93,0,0,0-1.84,1.48,2.35,2.35,0,0,0-.07.49v1.19a2.27,2.27,0,0,0,.05.44,1.87,1.87,0,0,0,1.81,1.41c1.26,0,2-1,2-2.55C31.41,24.89,30.72,23.75,29.43,23.75Z"/><path class="cls-1" d="M44,15.3C44,7.31,37.36,0,29,0A14.62,14.62,0,0,0,15,9.56C8.62,9,3,14.35,6,22c-3.31,1.9-6,5.6-6,9.56,0,6,4.73,10.52,11,10.52H44c7.66,0,14-6.06,14-13.39S51.66,15.3,44,15.3ZM23.39,29.58l-.1-.84h0a2.48,2.48,0,0,1-2,1,1.89,1.89,0,0,1-2-1.91c0-1.61,1.43-2.49,4-2.47v-.14a1.37,1.37,0,0,0-1.51-1.54,3.31,3.31,0,0,0-1.73.49l-.27-.8a4.13,4.13,0,0,1,2.18-.59c2,0,2.53,1.39,2.53,2.72V28a9.35,9.35,0,0,0,.11,1.59Zm6.25.15a2.37,2.37,0,0,1-2.22-1.25h0l-.06,1.1h-1c0-.45.05-1.13.05-1.72v-8h1.19V24h0a2.48,2.48,0,0,1,2.27-1.22c1.65,0,2.81,1.37,2.8,3.39C32.62,28.55,31.12,29.73,29.64,29.73Zm7.56-1a3.43,3.43,0,0,0,1.48-.33l.21.91a4.46,4.46,0,0,1-1.91.38,3.16,3.16,0,0,1-3.31-3.39,3.38,3.38,0,0,1,3.57-3.53,4,4,0,0,1,1.68.34l-.27.93a2.81,2.81,0,0,0-1.4-.32,2.3,2.3,0,0,0-2.35,2.51A2.28,2.28,0,0,0,37.19,28.76Z"/></g></g></svg>