<svg xmlns="http://www.w3.org/2000/svg" viewBox="0 0 22.05 21.84"><defs><style>.cls-1{fill:none;stroke:#fff;stroke-linecap:round;stroke-miterlimit:10;}</style></defs><title>Administrator icon white</title><g id="Layer_2" data-name="Layer 2"><g id="Layer_1-2" data-name="Layer 1"><circle class="cls-1" cx="7.87" cy="14.09" r="2.72"/><circle class="cls-1" cx="17.38" cy="4.58" r="1.36"/><path class="cls-1" d="M13.75,14.09a5.92,5.92,0,0,0-.13-1.23L15,12,13.23,8.9l-1.4.83a5,5,0,0,0-2.1-1.23V7H6.12V8.49A5.21,5.21,0,0,0,4,9.72L2.51,8.9.69,12l1.42.82a5.86,5.86,0,0,0,0,2.46l-1.43.82,1.81,3.14L4,18.46a5.22,5.22,0,0,0,2.16,1.23v1.65H9.74V19.69a5,5,0,0,0,2.1-1.23l1.41.83,1.8-3.14-1.43-.82A6,6,0,0,0,13.75,14.09Z"/><path class="cls-1" d="M20.55,4.58a3.18,3.18,0,0,0-.09-.73l.9-.52-.91-1.57-.87.52a3.24,3.24,0,0,0-1.24-.74V.5H16.54v1a3.48,3.48,0,0,0-1.3.73l-.92-.52L13.4,3.32l.9.52a3.07,3.07,0,0,0,0,1.47l-.9.52L14.3,7.4l.93-.52a3.48,3.48,0,0,0,1.3.74v1h1.81v-1a3.24,3.24,0,0,0,1.24-.74l.88.52.9-1.57-.9-.52A3.17,3.17,0,0,0,20.55,4.58Z"/></g></g></svg>