<svg xmlns="http://www.w3.org/2000/svg" viewBox="0 0 40 40"><defs><style>.cls-1{fill:#4e81be;}</style></defs><title>Blue man</title><g id="Layer_2" data-name="Layer 2"><g id="Layer_1-2" data-name="Layer 1"><path class="cls-1" d="M20,40H40a17.63,17.63,0,0,0-1.74-7.06c-1.3-2.59-6.48-4.13-13.43-6.74V21A7.74,7.74,0,0,0,27,15.55c.87,0,1.74-3.48,0-4.35,0-.52,2.33-4.87,1.74-7.83C27.83-1,15.65-1,14.78,2.51c-5.22,0-1.74,8-1.74,8.7-1.74.87-.87,4.35,0,4.35a6.65,6.65,0,0,0,2.13,5.14v5.52C8.22,28.82,3,30.35,1.74,32.94A17.63,17.63,0,0,0,0,40Z"/></g></g></svg>