<svg xmlns="http://www.w3.org/2000/svg" viewBox="0 0 43.3 43.3"><defs><style>.cls-1{fill:gray;}</style></defs><title>Classification #808080</title><g id="Layer_2" data-name="Layer 2"><g id="Layer_1-2" data-name="Layer 1"><path class="cls-1" d="M42.4,32.48H38.75A11.74,11.74,0,0,0,27.06,21.65H22.55V10.83h3.61a.9.9,0,0,0,.9-.9V.9a.9.9,0,0,0-.9-.9h-9a.9.9,0,0,0-.9.9v9a.9.9,0,0,0,.9.9h3.61V21.65H16.24A11.73,11.73,0,0,0,4.56,32.48H.9a.9.9,0,0,0-.9.9v9a.9.9,0,0,0,.9.9h9a.9.9,0,0,0,.9-.9v-9a.9.9,0,0,0-.9-.9H6.36a9.93,9.93,0,0,1,9.88-9h4.51v9H17.14a.9.9,0,0,0-.9.9v9a.9.9,0,0,0,.9.9h9a.9.9,0,0,0,.9-.9v-9a.9.9,0,0,0-.9-.9H22.55v-9h4.51a9.93,9.93,0,0,1,9.88,9H33.38a.9.9,0,0,0-.9.9v9a.9.9,0,0,0,.9.9h9a.9.9,0,0,0,.9-.9v-9A.9.9,0,0,0,42.4,32.48Z"/></g></g></svg>