<svg xmlns="http://www.w3.org/2000/svg" viewBox="0 0 44.82 44.82"><defs><style>.cls-1{fill:#009245;}</style></defs><title>Clustering color icon</title><g id="Layer_2" data-name="Layer 2"><g id="Layer_1-2" data-name="Layer 1"><path class="cls-1" d="M41.09,23.35A3.73,3.73,0,0,0,38,25l-5.05-2.09a8.37,8.37,0,0,0-1.15-8.55L39.2,6.94a3.69,3.69,0,0,0,1.89.53,3.74,3.74,0,1,0-3.74-3.74,3.69,3.69,0,0,0,.53,1.89l-7.42,7.44a8.38,8.38,0,0,0-12.55,2.41L7.4,11a3.79,3.79,0,1,0-.81,1.69l10.57,4.53a8.37,8.37,0,0,0,1.5,7.69l-13,13a3.72,3.72,0,1,0,1.85,3.21,3.71,3.71,0,0,0-.53-1.89l13-13A8.34,8.34,0,0,0,24.28,28v9.53a3.74,3.74,0,1,0,1.87,0V28A8.39,8.39,0,0,0,32,24.56l5.4,2.23c0,.1,0,.19,0,.29a3.74,3.74,0,1,0,3.74-3.74Z"/></g></g></svg>