<svg xmlns="http://www.w3.org/2000/svg" viewBox="0 0 48.65 48.65"><defs><style>.cls-1{fill:gray;}</style></defs><title>Correlation #808080</title><g id="Layer_2" data-name="Layer 2"><g id="Layer_1-2" data-name="Layer 1"><path class="cls-1" d="M42.57,0a6.08,6.08,0,0,0-3,11.38L34.52,25.44a6,6,0,0,0-5,1.31l-5.09-4.37a6.08,6.08,0,1,0-9,1.59L8.15,36.86a6.09,6.09,0,1,0,1.76,1L17.19,25a6,6,0,0,0,6-1l5.1,4.37a6,6,0,0,0-.87,3.13,6.08,6.08,0,1,0,9.06-5.3l5.06-14.06A6.08,6.08,0,1,0,42.57,0Z"/></g></g></svg>