<svg xmlns="http://www.w3.org/2000/svg" viewBox="0 0 38.7 43.7"><defs><style>.cls-1{fill:gray;}</style></defs><title>CSV #808080</title><g id="Layer_2" data-name="Layer 2"><g id="Layer_1-2" data-name="Layer 1"><path class="cls-1" d="M36.25,15.63h-1V10.57a.76.76,0,0,0,0-.1.84.84,0,0,0-.2-.55L26.56.29h0a.83.83,0,0,0-.17-.14l-.06,0L26.16,0h0l-.2,0H5.21A1.72,1.72,0,0,0,3.5,1.71V15.63h-1A2.45,2.45,0,0,0,0,18.08V30.82a2.45,2.45,0,0,0,2.45,2.45h1V42A1.72,1.72,0,0,0,5.21,43.7H33.49A1.72,1.72,0,0,0,35.2,42V33.27h1a2.45,2.45,0,0,0,2.45-2.45V18.08A2.45,2.45,0,0,0,36.25,15.63ZM5.21,1.71H25.06v8.77a.86.86,0,0,0,.86.86h7.57v4.29H5.21ZM18.11,25C16,24.22,14.6,23,14.6,21.18c0-2.18,1.82-3.85,4.84-3.85a7.82,7.82,0,0,1,3.27.65l-.64,2.34a6.07,6.07,0,0,0-2.68-.61c-1.25,0-1.86.57-1.86,1.23,0,.82.72,1.18,2.37,1.8,2.26.84,3.32,2,3.32,3.82,0,2.14-1.65,4-5.16,4a8.38,8.38,0,0,1-3.63-.78L15,27.35a7.37,7.37,0,0,0,3.21.8c1.33,0,2-.55,2-1.39S19.65,25.51,18.11,25ZM3,24.12c0-4.37,3.11-6.8,7-6.8a7.54,7.54,0,0,1,3.15.57l-.59,2.3a6.27,6.27,0,0,0-2.43-.47A3.85,3.85,0,0,0,6.08,24a3.82,3.82,0,0,0,4.1,4.18,7.22,7.22,0,0,0,2.41-.42L13,30a8.24,8.24,0,0,1-3.28.55C5.32,30.52,3,27.77,3,24.12Zm30.45,17.4H5.21V33.27H33.49ZM31.57,30.33H28.2l-4.1-12.79h3.17l1.56,5.41c.44,1.52.84,3,1.14,4.57H30c.32-1.54.72-3.06,1.16-4.52l1.63-5.47h3.08Z"/></g></g></svg>