<svg xmlns="http://www.w3.org/2000/svg" viewBox="0 0 97.16 40"><defs><style>.cls-1{isolation:isolate;}.cls-2{fill:#fff;}</style></defs><title>iDS white logo</title><g id="Layer_2" data-name="Layer 2"><g id="Layer_1-2" data-name="Layer 1"><g id="Layer_2-2" data-name="Layer 2"><g id="Layer_1-2-2" data-name="Layer 1-2"><g class="cls-1"><path class="cls-2" d="M63.63,16.35H62a2.34,2.34,0,0,1,0-.3c0-.12,0-.24,0-.37s0-.27,0-.4A2.46,2.46,0,0,1,62,15h3.24V27.68l-.41,0h-.81l-.42,0Zm-.82-4.52c0-.15,0-.33,0-.55s0-.4,0-.55,0-.3,0-.5,0-.37,0-.5l.55,0h1l.5,0c0,.13,0,.3,0,.5s0,.37,0,.5,0,.33,0,.55,0,.4,0,.55l-.5,0h-1Z"/><path class="cls-2" d="M70,9.74l.86-.1,1.08-.09,1.15-.06,1,0a11.85,11.85,0,0,1,4.08.64,7.46,7.46,0,0,1,2.87,1.82,7.38,7.38,0,0,1,1.68,2.89,12.58,12.58,0,0,1,.55,3.85q0,9.31-9.18,9.31L73,28l-1.16-.06c-.37,0-.72-.06-1-.1L70,27.68Zm1.72,16.44,1.06.1c.41,0,.83,0,1.26,0A11.89,11.89,0,0,0,77.14,26a5.54,5.54,0,0,0,2.36-1.27A5.79,5.79,0,0,0,81,22.3a11.25,11.25,0,0,0,.52-3.71q0-3.87-2-5.68A7.86,7.86,0,0,0,74,11.11l-1.24,0a8.23,8.23,0,0,0-1.08.1Z"/><path class="cls-2" d="M86.76,25.68l.72.22a8,8,0,0,0,.84.22q.46.1,1,.17a10.37,10.37,0,0,0,1.32.07,6.54,6.54,0,0,0,2.06-.29,4.15,4.15,0,0,0,1.42-.77A3.05,3.05,0,0,0,95,24.17a3.7,3.7,0,0,0,.27-1.43,3.9,3.9,0,0,0-.19-1.28,2.55,2.55,0,0,0-.65-1,5.23,5.23,0,0,0-1.27-.86q-.81-.41-2-.89-.87-.32-1.66-.7a5.79,5.79,0,0,1-1.38-.91,3.94,3.94,0,0,1-.95-1.29A4.41,4.41,0,0,1,86.78,14a4.09,4.09,0,0,1,1.46-3.27,6.38,6.38,0,0,1,4.25-1.25q.55,0,1.11,0t1,.13q.49.07.9.17l.66.17q0,.38-.14.76a6.41,6.41,0,0,1-.21.74,11.94,11.94,0,0,0-3.39-.52,4.26,4.26,0,0,0-3,.85,2.83,2.83,0,0,0-.9,2.15,2.39,2.39,0,0,0,.27,1.17,2.8,2.8,0,0,0,.76.87,6.12,6.12,0,0,0,1.16.69q.67.31,1.45.61,1,.42,2,.87a6.59,6.59,0,0,1,1.56,1,4.43,4.43,0,0,1,1,1.41,4.65,4.65,0,0,1,.37,2,5.5,5.5,0,0,1-.46,2.31,4.62,4.62,0,0,1-1.31,1.7,5.91,5.91,0,0,1-2.07,1,9.66,9.66,0,0,1-2.74.36,11.73,11.73,0,0,1-2.44-.21,18.79,18.79,0,0,1-1.82-.49,5.68,5.68,0,0,1,.17-.81A6.66,6.66,0,0,1,86.76,25.68Z"/></g><g id="Layer_2-2-2" data-name="Layer 2-2"><g id="Layer_1-2-2-2" data-name="Layer 1-2-2"><path class="cls-2" d="M.78,25a24.09,24.09,0,0,0,9.75-5.09,24.1,24.1,0,0,0-9.81-5.1A17.73,17.73,0,0,0,.78,25Z"/><path class="cls-2" d="M11.06,18.76a21.78,21.78,0,0,0,7.7-16.5A21.4,21.4,0,0,0,18.64,0,19.6,19.6,0,0,0,1.26,13.66,24.1,24.1,0,0,1,11.06,18.76Z"/><path class="cls-2" d="M11.06,21.24a21.78,21.78,0,0,1,7.7,16.5A21.4,21.4,0,0,1,18.64,40,19.6,19.6,0,0,1,1.26,26.34,24.1,24.1,0,0,0,11.06,21.24Z"/><path class="cls-2" d="M39.22,25a24.09,24.09,0,0,1-9.75-5.09,24.1,24.1,0,0,1,9.81-5.1A17.73,17.73,0,0,1,39.22,25Z"/><path class="cls-2" d="M28.94,18.76a21.78,21.78,0,0,1-7.7-16.5A21.4,21.4,0,0,1,21.36,0,19.6,19.6,0,0,1,38.74,13.66,24.1,24.1,0,0,0,28.94,18.76Z"/><path class="cls-2" d="M28.94,21.24a21.78,21.78,0,0,0-7.7,16.5A21.4,21.4,0,0,0,21.36,40,19.6,19.6,0,0,0,38.74,26.34,24.1,24.1,0,0,1,28.94,21.24Z"/></g></g></g></g></g></g></svg>