<svg xmlns="http://www.w3.org/2000/svg" xmlns:xlink="http://www.w3.org/1999/xlink" viewBox="0 0 48 61.2"><defs><style>.cls-1{fill:#fff;}.cls-2{clip-path:url(#clip-path);}.cls-3{fill:#4d4d4d;}</style><clipPath id="clip-path"><circle class="cls-1" cx="24" cy="24" r="24"/></clipPath></defs><title>man</title><g id="Layer_2" data-name="Layer 2"><g id="Layer_1-2" data-name="Layer 1"><circle class="cls-1" cx="24" cy="24" r="24"/><g class="cls-2"><path class="cls-3" d="M24.3,61.2,41.7,41.4a15.34,15.34,0,0,0-1.51-6.14C39.06,33,34.55,31.67,28.5,29.4V24.86a6.74,6.74,0,0,0,1.85-4.73c.76,0,1.51-3,0-3.78,0-.45,2-4.24,1.51-6.81-.76-3.78-11.35-3.78-12.1-.76-4.54,0-1.51,7-1.51,7.57-1.51.76-.76,3.78,0,3.78A5.78,5.78,0,0,0,20.1,24.6v4.8C14,31.67,9.54,33,8.41,35.26A15.34,15.34,0,0,0,6.9,41.4Z"/></g></g></g></svg>