<svg xmlns="http://www.w3.org/2000/svg" viewBox="0 0 19 19.06"><defs><style>.cls-1{fill:none;stroke:#fff;stroke-linecap:round;stroke-miterlimit:10;}</style></defs><title>Models icon white</title><g id="Layer_2" data-name="Layer 2"><g id="Layer_1-2" data-name="Layer 1"><polygon class="cls-1" points="10.43 7.98 14.16 6.42 14.16 1.77 10.43 3.01 6.71 1.77 6.71 6.42 10.43 7.98"/><polyline class="cls-1" points="14.16 1.77 10.43 0.53 6.71 1.77"/><line class="cls-1" x1="10.43" y1="3.01" x2="10.43" y2="7.98"/><polygon class="cls-1" points="15.4 14.81 18.5 13.25 18.5 9.84 15.4 11.08 12.29 9.84 12.29 13.25 15.4 14.81"/><polyline class="cls-1" points="18.5 9.84 15.4 8.6 12.29 9.84"/><line class="cls-1" x1="15.4" y1="11.08" x2="15.4" y2="14.81"/><polygon class="cls-1" points="5.47 18.53 10.43 16.67 10.43 10.77 5.47 12.32 0.5 10.77 0.5 16.67 5.47 18.53"/><polyline class="cls-1" points="10.43 10.77 5.47 9.22 0.5 10.77"/><line class="cls-1" x1="5.47" y1="12.32" x2="5.47" y2="18.53"/></g></g></svg>