<svg xmlns="http://www.w3.org/2000/svg" viewBox="0 0 43.3 43.3"><title>RSS black</title><g id="Layer_2" data-name="Layer 2"><g id="Layer_1-2" data-name="Layer 1"><path d="M36.16,43.3h-29l-.56-.12a8.11,8.11,0,0,1-6.59-8Q0,21.64,0,8.07A8.07,8.07,0,0,1,8,0Q21.66,0,35.29,0a8.1,8.1,0,0,1,7.59,5.44c.19.56.28,1.14.43,1.71v29l-.12.56a8.07,8.07,0,0,1-4.61,5.86A10.66,10.66,0,0,1,36.16,43.3Zm-1-5.43h2.16c.55,0,.57,0,.54-.57s-.07-1.39-.12-2.09a31,31,0,0,0-3.16-11.54A32.2,32.2,0,0,0,18.69,8.29,32.08,32.08,0,0,0,5.93,5.45c-.45,0-.49,0-.49.45,0,1.49,0,3,0,4.47,0,.35.12.46.46.45a21.07,21.07,0,0,1,3.45.27A26.65,26.65,0,0,1,27.67,22.46a26.14,26.14,0,0,1,4.82,15c0,.36.14.46.47.45C33.69,37.86,34.43,37.88,35.16,37.88Zm-10.81,0c.76,0,1.51,0,2.27,0,.33,0,.45-.11.43-.44a23.28,23.28,0,0,0-.4-3.62q-2.71-12.3-14.59-16.5a21,21,0,0,0-6.2-1.05c-.31,0-.43.09-.43.41,0,1.53,0,3.05,0,4.58,0,.27.1.39.38.39s.74,0,1.11.06A15.71,15.71,0,0,1,16.55,26a15.9,15.9,0,0,1,5.12,11.43c0,.29.11.4.41.4C22.84,37.87,23.59,37.88,24.35,37.88ZM10.85,27.09a5.39,5.39,0,1,0,5.38,5.38A5.42,5.42,0,0,0,10.85,27.09Z"/></g></g></svg>