<svg xmlns="http://www.w3.org/2000/svg" viewBox="0 0 48.44 47.52"><defs><style>.cls-1{fill:#fff;}</style></defs><title>Sentimental Detection black icon</title><g id="Layer_2" data-name="Layer 2"><g id="Layer_1-2" data-name="Layer 1"><path d="M48.44,32.28A15.23,15.23,0,1,1,33.17,17.07,15.25,15.25,0,0,1,48.44,32.28ZM26.58,35.46c-.08,2.9,3.5,5.73,7,5.6,3.13-.12,6.51-3.13,6.25-5.6Zm2.86-4.95H31c.26,0,.42-.07.41-.37a4.84,4.84,0,0,0-.73-2.74,1.33,1.33,0,0,0-2.36,0,4.3,4.3,0,0,0-.71,2.78c0,.12.23.32.37.33C28.43,30.54,28.94,30.51,29.44,30.52Zm7.53,0h1.56c.25,0,.36-.1.36-.36a4.75,4.75,0,0,0-.63-2.61,1.37,1.37,0,0,0-2.53,0,4.28,4.28,0,0,0-.63,2.65.51.51,0,0,0,.35.34C36,30.54,36.47,30.51,37,30.51Z"/><path d="M20.57,18.85c-2.34-2.51-5.08-3.23-8.25-1.89-2,.84-3.72,3.21-3.71,5H18c-.12.23-.18.37-.25.48A17.77,17.77,0,0,0,15,30c-.05.41-.19.53-.6.51A15.13,15.13,0,0,1,.54,19.19C-1,13,.68,7.75,5.46,3.63A14.18,14.18,0,0,1,18.6.46C25,2,28.83,6.22,30.23,12.64c.3,1.39.27,1.38-1.1,1.7a18.32,18.32,0,0,0-7.85,4l-.54.46A1,1,0,0,1,20.57,18.85Zm-9.08-6.4H13c.28,0,.4-.11.39-.39a4.91,4.91,0,0,0-.72-2.73,1.32,1.32,0,0,0-2.38,0,4.58,4.58,0,0,0-.73,2.77c0,.29.15.37.41.37Zm7.5,0c.52,0,1,0,1.56,0a.5.5,0,0,0,.35-.34,4.46,4.46,0,0,0-.68-2.74,1.32,1.32,0,0,0-2.38-.05,4.29,4.29,0,0,0-.71,2.83c0,.11.25.29.39.31C18,12.47,18.5,12.45,19,12.44Z"/><path class="cls-1" d="M26.58,35.46H39.79c.26,2.47-3.11,5.48-6.25,5.6C30.08,41.2,26.51,38.36,26.58,35.46Z"/><path class="cls-1" d="M29.44,30.52c-.5,0-1,0-1.51,0-.14,0-.36-.21-.37-.33a4.3,4.3,0,0,1,.71-2.78,1.33,1.33,0,0,1,2.36,0,4.84,4.84,0,0,1,.73,2.74c0,.29-.15.37-.41.37Z"/><path class="cls-1" d="M37,30.51c-.5,0-1,0-1.51,0a.51.51,0,0,1-.35-.34,4.28,4.28,0,0,1,.63-2.65,1.37,1.37,0,0,1,2.53,0,4.75,4.75,0,0,1,.63,2.61c0,.26-.11.36-.36.36Z"/><path class="cls-1" d="M11.49,12.45H10c-.26,0-.41-.08-.41-.37A4.58,4.58,0,0,1,10.3,9.3a1.32,1.32,0,0,1,2.38,0,4.91,4.91,0,0,1,.72,2.73c0,.28-.12.39-.39.39Z"/><path class="cls-1" d="M19,12.45c-.49,0-1,0-1.46,0-.14,0-.38-.19-.39-.31a4.29,4.29,0,0,1,.71-2.83,1.32,1.32,0,0,1,2.38.05,4.46,4.46,0,0,1,.68,2.74.5.5,0,0,1-.35.34C20,12.47,19.51,12.44,19,12.45Z"/></g></g></svg>