<svg xmlns="http://www.w3.org/2000/svg" viewBox="0 0 48.44 47.52"><defs><style>.cls-1{fill:#6f81c0;}</style></defs><title>Sentiment #6F81C0</title><g id="Layer_2" data-name="Layer 2"><g id="Layer_1-2" data-name="Layer 1"><path class="cls-1" d="M33.17,17.07A15.23,15.23,0,1,0,48.43,32.28,15.28,15.28,0,0,0,33.17,17.07Zm2.57,10.44a2.41,2.41,0,0,1,.29-.36,1.35,1.35,0,0,1,1-.46,1.13,1.13,0,0,1,.34.06,1.78,1.78,0,0,1,.91.81,4,4,0,0,1,.5,1.26,6,6,0,0,1,.13,1.35c0,.26-.11.36-.36.36H37c-.5,0-1,0-1.51,0a.4.4,0,0,1-.2-.11l0,0-.09-.11a.23.23,0,0,1,0-.1,5.26,5.26,0,0,1,.08-1.28c0-.08,0-.17.06-.25A3.7,3.7,0,0,1,35.74,27.51Zm-7.46-.12a1.47,1.47,0,0,1,1.19-.71,1.32,1.32,0,0,1,.91.41,2.18,2.18,0,0,1,.27.32,4.85,4.85,0,0,1,.73,2.74.49.49,0,0,1,0,.09.3.3,0,0,1-.09.2.48.48,0,0,1-.31.07H29.44c-.5,0-1,0-1.49,0h0a.46.46,0,0,1-.23-.12l-.09-.1a.2.2,0,0,1,0-.1A4.3,4.3,0,0,1,28.28,27.39Zm5.27,13.67c-3.47.14-7-2.7-7-5.6H39.79C40.06,37.93,36.68,40.94,33.55,41.06Z"/><path class="cls-1" d="M30.23,12.64C28.83,6.22,25,2,18.6.46A14.18,14.18,0,0,0,5.46,3.63,14.69,14.69,0,0,0,.54,19.19,15.13,15.13,0,0,0,14.35,30.47c.41,0,.54-.09.6-.51a17.76,17.76,0,0,1,2.75-7.57c.08-.12.13-.25.25-.48H8.6c0-1.75,1.73-4.12,3.71-5,3.17-1.34,5.91-.62,8.25,1.89a1,1,0,0,0,.17-.09l.54-.46a18.33,18.33,0,0,1,7.85-4C30.49,14,30.53,14,30.23,12.64ZM13,12.45H10c-.26,0-.41-.08-.41-.37A4.57,4.57,0,0,1,10.3,9.3a1.32,1.32,0,0,1,2.38,0,4.92,4.92,0,0,1,.72,2.73C13.4,12.34,13.28,12.45,13,12.45Zm7.55,0c-.52,0-1,0-1.56,0s-1,0-1.46,0c-.14,0-.38-.19-.39-.31a4.29,4.29,0,0,1,.71-2.83,1.32,1.32,0,0,1,2.38.05,4.46,4.46,0,0,1,.68,2.74A.5.5,0,0,1,20.55,12.43Z"/></g></g></svg>