<svg xmlns="http://www.w3.org/2000/svg" viewBox="0 0 48.44 47.52"><defs><style>.cls-1{fill:gray;}</style></defs><title>Sentiment #808080</title><g id="Layer_2" data-name="Layer 2"><g id="Layer_1-2" data-name="Layer 1"><path class="cls-1" d="M33.17,17.07A15.23,15.23,0,1,0,48.44,32.28,15.28,15.28,0,0,0,33.17,17.07Zm2.57,10.44a1.37,1.37,0,0,1,2.53,0,4.75,4.75,0,0,1,.63,2.61c0,.26-.11.36-.36.36H37c-.5,0-1,0-1.51,0a.51.51,0,0,1-.35-.34A4.28,4.28,0,0,1,35.74,27.51Zm-7.46-.12a1.33,1.33,0,0,1,2.36,0,4.85,4.85,0,0,1,.73,2.74c0,.29-.15.37-.41.37H29.44c-.5,0-1,0-1.51,0-.14,0-.36-.21-.37-.33A4.3,4.3,0,0,1,28.28,27.39Zm5.27,13.67c-3.47.14-7-2.7-7-5.6H39.79C40.06,37.93,36.68,40.94,33.55,41.06Z"/><path class="cls-1" d="M30.23,12.64C28.83,6.22,25,2,18.6.46A14.18,14.18,0,0,0,5.46,3.63C.68,7.75-1,13,.54,19.19A15.13,15.13,0,0,0,14.35,30.47c.41,0,.54-.1.6-.51a17.77,17.77,0,0,1,2.75-7.57c.08-.12.13-.25.25-.48H8.6c0-1.75,1.73-4.12,3.71-5,3.17-1.34,5.91-.62,8.25,1.89a1,1,0,0,0,.17-.09l.54-.46a18.32,18.32,0,0,1,7.85-4C30.49,14,30.53,14,30.23,12.64ZM13,12.45H10c-.26,0-.41-.08-.41-.37A4.58,4.58,0,0,1,10.3,9.3a1.32,1.32,0,0,1,2.38,0,4.91,4.91,0,0,1,.72,2.73C13.4,12.34,13.28,12.45,13,12.45Zm7.55,0c-.52,0-1,0-1.56,0s-1,0-1.46,0c-.14,0-.38-.19-.39-.31a4.29,4.29,0,0,1,.71-2.83,1.32,1.32,0,0,1,2.38.05,4.46,4.46,0,0,1,.68,2.74A.5.5,0,0,1,20.55,12.43Z"/></g></g></svg>